HIERARCHY
ROOT Model_Hips
{
	OFFSET 0.000000 96.915077 0.000000
	CHANNELS 6 Xposition Yposition Zposition Xrotation Yrotation Zrotation
	JOINT Model_Spine
	{
		OFFSET 0.000000 11.137703 -1.289900
		CHANNELS 3 Xrotation Yrotation Zrotation
		JOINT Model_Spine1
		{
			OFFSET 0.000000 12.993942 -1.504922
			CHANNELS 3 Xrotation Yrotation Zrotation
			JOINT Model_Spine2
			{
				OFFSET 0.000000 14.850220 -1.719911
				CHANNELS 3 Xrotation Yrotation Zrotation
				JOINT Model_Neck
				{
					OFFSET 0.000000 16.706543 -1.934903
					CHANNELS 3 Xrotation Yrotation Zrotation
					JOINT Model_Head
					{
						OFFSET 0.000000 10.471298 2.002100
						CHANNELS 3 Xrotation Yrotation Zrotation
						JOINT Model_HeadTop_End
						{
							OFFSET 0.000000 20.842606 3.985100
							CHANNELS 3 Xrotation Yrotation Zrotation
							End Site
							{
								OFFSET 0.000000 21.220154 0.000000
							}
						}
					}
				}
				JOINT Model_LeftShoulder
				{
					OFFSET 7.008500 14.768600 -1.919946
					CHANNELS 3 Xrotation Yrotation Zrotation
					JOINT Model_LeftArm
					{
						OFFSET 14.126271 -3.718048 0.029937
						CHANNELS 3 Xrotation Yrotation Zrotation
						JOINT Model_LeftForeArm
						{
							OFFSET 28.282801 0.000000 0.000000
							CHANNELS 3 Xrotation Yrotation Zrotation
							JOINT Model_LeftHand
							{
								OFFSET 26.204689 0.000000 0.000000
								CHANNELS 3 Xrotation Yrotation Zrotation
								End Site
								{
									OFFSET 26.204704 0.000000 0.000000
								}
							}
						}
					}
				}
				JOINT Model_RightShoulder
				{
					OFFSET -7.008500 14.768555 -1.949840
					CHANNELS 3 Xrotation Yrotation Zrotation
					JOINT Model_RightArm
					{
						OFFSET -14.126281 -3.718018 -0.029932
						CHANNELS 3 Xrotation Yrotation Zrotation
						JOINT Model_RightForeArm
						{
							OFFSET -28.283798 0.000000 -0.000001
							CHANNELS 3 Xrotation Yrotation Zrotation
							JOINT Model_RightHand
							{
								OFFSET -26.204193 0.000000 -0.000001
								CHANNELS 3 Xrotation Yrotation Zrotation
								End Site
								{
									OFFSET -26.204208 0.000000 -0.000001
								}
							}
						}
					}
				}
			}
		}
	}
	JOINT Model_LeftUpLeg
	{
		OFFSET 8.327700 -6.193199 -0.402800
		CHANNELS 3 Xrotation Yrotation Zrotation
		JOINT Model_LeftLeg
		{
			OFFSET 0.735802 -42.108742 -0.610721
			CHANNELS 3 Xrotation Yrotation Zrotation
			JOINT Model_LeftFoot
			{
				OFFSET -0.735806 -36.833748 -0.172876
				CHANNELS 3 Xrotation Yrotation Zrotation
				JOINT Model_LeftToeBase
				{
					OFFSET -0.565857 -11.977769 16.297714
					CHANNELS 3 Xrotation Yrotation Zrotation
					JOINT Model_LeftToe_End
					{
						OFFSET -0.111712 -0.312793 7.857784
						CHANNELS 3 Xrotation Yrotation Zrotation
						End Site
						{
							OFFSET -0.111712 -0.312793 7.857784
						}
					}
				}
			}
		}
	}
	JOINT Model_RightUpLeg
	{
		OFFSET -8.327700 -6.193199 -0.516500
		CHANNELS 3 Xrotation Yrotation Zrotation
		JOINT Model_RightLeg
		{
			OFFSET -0.735785 -42.108738 -0.434061
			CHANNELS 3 Xrotation Yrotation Zrotation
			JOINT Model_RightFoot
			{
				OFFSET 0.735776 -36.833748 -0.021630
				CHANNELS 3 Xrotation Yrotation Zrotation
				JOINT Model_RightToeBase
				{
					OFFSET 0.565817 -11.977745 15.903093
					CHANNELS 3 Xrotation Yrotation Zrotation
					JOINT Model_RightToe_End
					{
						OFFSET 0.111702 -0.312791 7.811342
						CHANNELS 3 Xrotation Yrotation Zrotation
						End Site
						{
							OFFSET 0.111702 -0.312791 7.811342
						}
					}
				}
			}
		}
	}
}
MOTION
Frames: 7
Frame Time: 0.033333
-0.243345 96.493538 0.265491 -4.315008 -2.834079 1.235576 6.331782 -2.214711 0.068220 0.584416 -0.628574 -0.173313 0.586624 -0.622347 -0.171087 -1.352828 -0.196532 -0.604556 -1.354434 -0.199174 -0.604061 0.000000 0.000000 0.000000 0.755449 -0.949812 -17.299928 -0.734535 -9.495187 -56.496528 -0.000007 -13.104456 -0.000017 -0.000002 0.000002 0.000001 0.615783 3.124657 19.144740 0.537381 8.872060 61.175552 0.000009 6.440771 -0.000003 -0.000001 -0.000001 0.000000 -1.684051 11.167087 4.516335 14.558668 -4.169617 -1.526544 -8.669986 0.290162 -1.888322 -0.363923 0.000005 -0.000001 0.000000 -0.000000 -0.000000 -24.964570 -5.580040 -0.781322 61.830608 0.185103 1.205318 0.983694 -0.006878 -0.900724 -10.266103 0.624032 -4.449938 0.000003 0.000000 0.000001 
-0.054497 96.580399 4.023152 -3.714464 -2.964669 0.724523 6.196229 -3.631969 0.926926 0.595155 -1.040585 -0.010146 0.597858 -1.035346 -0.005282 -1.382562 -0.094613 -0.604555 -1.384942 -0.096375 -0.594418 0.000000 -0.000000 0.000000 0.705146 -1.676661 -17.179287 -2.150534 -12.063414 -55.250394 0.000019 -15.458380 -0.000025 -0.000002 -0.000002 -0.000001 0.681507 2.291709 18.816188 3.447608 7.779938 62.088728 0.000001 7.079241 -0.000002 -0.000002 -0.000000 -0.000000 0.344183 11.521800 4.571120 14.590261 -4.134808 -1.328555 -11.199681 0.186037 -0.977208 -0.550281 0.000006 0.000002 0.000001 -0.000000 -0.000000 -28.027903 -5.476850 -0.067109 53.365170 -1.820897 1.557962 -0.586471 0.018790 -0.968410 -2.776847 0.026534 -1.283328 -0.000001 0.000000 0.000001 
0.037635 96.325378 7.761641 -2.978016 -3.516967 0.173622 6.005878 -4.631810 1.815403 0.581544 -1.340859 0.162111 0.583221 -1.337017 0.168763 -1.415943 -0.000633 -0.598243 -1.418738 -0.001589 -0.591474 -0.000000 -0.000001 -0.000000 0.675373 -2.152631 -17.307240 -3.119627 -14.612053 -53.393105 -0.000004 -18.274525 0.000006 -0.000001 0.000001 -0.000000 0.727904 1.689725 18.702460 6.560228 6.241630 62.596163 0.000004 7.809503 -0.000022 -0.000001 -0.000000 -0.000000 2.209057 11.960977 4.701149 14.881679 -3.651623 -1.086280 -14.312288 0.085126 -0.426528 -0.520488 0.000003 -0.000001 0.000000 0.000001 0.000000 -29.485503 -4.807992 0.929058 41.626660 -5.240462 1.355467 -0.526110 0.039387 -1.095654 -0.627184 -0.000004 0.000003 -0.000000 0.000000 0.000001 
0.013003 95.757004 11.597276 -2.479477 -4.393843 -0.194072 5.944365 -5.388282 2.525810 0.634168 -1.571393 0.278150 0.634946 -1.567535 0.287200 -1.452544 0.104568 -0.566849 -1.455364 0.105089 -0.559457 -0.000000 -0.000000 -0.000000 0.674707 -2.194355 -17.499664 -4.634145 -16.820217 -51.394943 -0.000002 -20.533140 0.000011 -0.000000 0.000001 0.000001 0.764432 1.264087 18.852852 9.228956 4.468582 62.955158 0.000016 8.164970 -0.000000 -0.000001 0.000000 0.000001 4.264174 12.791552 4.944200 15.551183 -3.213578 -1.221700 -17.539828 0.049969 -0.383919 -0.792250 -0.000000 -0.000000 0.000001 -0.000001 -0.000000 -28.330721 -4.041258 1.818884 25.488215 -8.456341 0.763259 2.026287 0.033625 -1.167025 -0.412908 -0.000015 0.000001 -0.000000 0.000001 -0.000000 
-0.124107 93.871651 16.124420 -2.114837 -5.406573 0.085572 4.888316 -5.960365 2.633015 1.101928 -1.733495 0.216018 1.101292 -1.731705 0.214363 -1.508518 0.189457 -0.535995 -1.511105 0.191288 -0.527965 -0.000000 -0.000001 -0.000000 0.688984 -2.011738 -17.636986 -6.589604 -18.400304 -49.737861 0.000001 -21.872052 0.000020 0.000001 -0.000001 -0.000001 0.803956 0.794562 18.929859 11.073732 1.958709 63.520227 0.000006 7.751016 0.000003 0.000002 -0.000000 0.000000 4.043588 13.288116 5.299800 23.205718 -2.863326 -1.542925 -25.228864 0.092098 -0.250461 -1.704095 0.000005 0.000001 0.000000 -0.000000 0.000000 -29.780089 -3.933539 1.731191 16.488567 -8.642014 0.228963 0.125575 -0.947849 0.103506 0.914472 -0.000002 0.000000 0.000001 0.000002 0.000000 
-0.473209 92.223785 20.869106 -1.779766 -6.285733 0.785919 3.735373 -6.421422 2.283645 1.450404 -1.856339 0.121531 1.449663 -1.855868 0.107461 -1.573257 0.255384 -0.559957 -1.576002 0.257443 -0.551178 -0.000000 0.000000 -0.000000 0.697706 -1.920265 -17.805034 -8.489018 -19.017448 -48.594467 -0.000026 -22.504129 -0.000010 0.000001 -0.000001 0.000001 0.842132 0.202591 18.584217 12.040155 -1.486567 64.417153 0.000005 6.276978 -0.000002 0.000003 -0.000000 -0.000000 6.118064 13.553772 5.015484 26.233915 -3.050329 -1.681369 -28.867777 0.788161 -2.249685 -3.699136 0.000000 0.000000 0.000000 -0.000001 -0.000000 -34.354557 -4.020143 1.022299 16.627843 -7.682378 -0.352117 -6.657566 -2.362166 4.987828 1.307286 0.000014 -0.000000 -0.000001 0.000001 -0.000000 
-1.086540 91.386688 25.341978 -1.564854 -6.794178 1.213702 3.589943 -6.992410 2.109268 1.305914 -2.015509 0.123859 1.305757 -2.014865 0.111047 -1.615809 0.324598 -0.617112 -1.619132 0.325820 -0.607523 0.000000 0.000001 0.000000 0.701000 -1.934190 -18.111280 -10.153035 -18.661629 -47.951681 0.000007 -22.599995 0.000012 -0.000001 0.000002 -0.000002 0.867878 -0.309343 18.150338 12.835643 -4.782821 65.192469 0.000009 4.573991 0.000002 0.000002 -0.000001 -0.000001 9.558534 14.226814 5.149653 25.180140 -4.385066 -2.000677 -28.475680 1.543116 -4.399316 -8.610701 -0.000002 -0.000001 -0.000000 -0.000000 -0.000000 -36.780698 -3.091423 1.545411 16.984046 -6.880364 -1.961897 -11.495188 -4.916566 9.414755 1.001402 0.000006 -0.000000 0.000001 0.000002 -0.000000 
